<svg width="12" height="13" viewBox="0 0 12 13" fill="none" xmlns="http://www.w3.org/2000/svg">
<path d="M0.750147 0.777771C0.551228 0.777771 0.360456 0.851793 0.219799 0.983552C0.0791423 1.11531 0.00012207 1.29402 0.00012207 1.48035C0.00012207 1.66669 0.0791423 1.84539 0.219799 1.97715C0.360456 2.10891 0.551228 2.18293 0.750147 2.18293H1.66518L1.89394 3.04149C1.89621 3.05137 1.89871 3.06121 1.90144 3.071L2.91997 6.88601L2.2502 7.51272C1.30517 8.39797 1.97419 9.91133 3.31073 9.91133H9.75045C9.94937 9.91133 10.1401 9.83731 10.2808 9.70555C10.4215 9.57379 10.5005 9.39508 10.5005 9.20875C10.5005 9.02241 10.4215 8.84371 10.2808 8.71195C10.1401 8.58019 9.94937 8.50617 9.75045 8.50617H3.31073L4.06076 7.80359H9.00042C9.13967 7.80352 9.27615 7.76713 9.39458 7.69851C9.51301 7.62989 9.6087 7.53174 9.67094 7.41506L11.921 3.19957C11.9781 3.09248 12.0051 2.9735 11.9994 2.8539C11.9936 2.73431 11.9553 2.61808 11.8882 2.51623C11.821 2.41439 11.7272 2.33031 11.6156 2.27198C11.504 2.21365 11.3783 2.183 11.2505 2.18293H3.21023L2.97772 1.30963C2.93709 1.15769 2.84343 1.02284 2.71162 0.926476C2.57981 0.830115 2.4174 0.777775 2.2502 0.777771H0.750147Z" fill="white"/>
<path d="M9.50027 11.6678C9.50027 11.9473 9.38174 12.2153 9.17076 12.413C8.95977 12.6106 8.67361 12.7216 8.37524 12.7216C8.07686 12.7216 7.7907 12.6106 7.57971 12.413C7.36873 12.2153 7.2502 11.9473 7.2502 11.6678C7.2502 11.3883 7.36873 11.1202 7.57971 10.9226C7.7907 10.7249 8.07686 10.6139 8.37524 10.6139C8.67361 10.6139 8.95977 10.7249 9.17076 10.9226C9.38174 11.1202 9.50027 11.3883 9.50027 11.6678Z" fill="white"/>
<path d="M4.37516 12.7216C4.67354 12.7216 4.9597 12.6106 5.17068 12.413C5.38167 12.2153 5.5002 11.9473 5.5002 11.6678C5.5002 11.3883 5.38167 11.1202 5.17068 10.9226C4.9597 10.7249 4.67354 10.6139 4.37516 10.6139C4.07678 10.6139 3.79062 10.7249 3.57964 10.9226C3.36865 11.1202 3.25012 11.3883 3.25012 11.6678C3.25012 11.9473 3.36865 12.2153 3.57964 12.413C3.79062 12.6106 4.07678 12.7216 4.37516 12.7216Z" fill="white"/>
</svg>
