<svg width="160" height="54" viewBox="0 0 160 54" fill="none" xmlns="http://www.w3.org/2000/svg">
<g filter="url(#filter0_d_435_55)">
<rect x="10.6202" y="6.89453" width="138.789" height="32.7848" rx="5" fill="#F3F3F3"/>
</g>
<path d="M33.108 22.6705C33.108 21.8385 33.288 21.0985 33.648 20.4505C34.008 19.7945 34.508 19.2865 35.148 18.9265C35.796 18.5585 36.528 18.3745 37.344 18.3745C38.344 18.3745 39.2 18.6385 39.912 19.1665C40.624 19.6945 41.1 20.4145 41.34 21.3265H39.084C38.916 20.9745 38.676 20.7065 38.364 20.5225C38.06 20.3385 37.712 20.2465 37.32 20.2465C36.688 20.2465 36.176 20.4665 35.784 20.9065C35.392 21.3465 35.196 21.9345 35.196 22.6705C35.196 23.4065 35.392 23.9945 35.784 24.4345C36.176 24.8745 36.688 25.0945 37.32 25.0945C37.712 25.0945 38.06 25.0025 38.364 24.8185C38.676 24.6345 38.916 24.3665 39.084 24.0145H41.34C41.1 24.9265 40.624 25.6465 39.912 26.1745C39.2 26.6945 38.344 26.9545 37.344 26.9545C36.528 26.9545 35.796 26.7745 35.148 26.4145C34.508 26.0465 34.008 25.5385 33.648 24.8905C33.288 24.2425 33.108 23.5025 33.108 22.6705ZM45.6446 26.9905C44.9886 26.9905 44.3966 26.8505 43.8686 26.5705C43.3486 26.2905 42.9366 25.8905 42.6326 25.3705C42.3366 24.8505 42.1886 24.2425 42.1886 23.5465C42.1886 22.8585 42.3406 22.2545 42.6446 21.7345C42.9486 21.2065 43.3646 20.8025 43.8926 20.5225C44.4206 20.2425 45.0126 20.1025 45.6686 20.1025C46.3246 20.1025 46.9166 20.2425 47.4446 20.5225C47.9726 20.8025 48.3886 21.2065 48.6926 21.7345C48.9966 22.2545 49.1486 22.8585 49.1486 23.5465C49.1486 24.2345 48.9926 24.8425 48.6806 25.3705C48.3766 25.8905 47.9566 26.2905 47.4206 26.5705C46.8926 26.8505 46.3006 26.9905 45.6446 26.9905ZM45.6446 25.2145C46.0366 25.2145 46.3686 25.0705 46.6406 24.7825C46.9206 24.4945 47.0606 24.0825 47.0606 23.5465C47.0606 23.0105 46.9246 22.5985 46.6526 22.3105C46.3886 22.0225 46.0606 21.8785 45.6686 21.8785C45.2686 21.8785 44.9366 22.0225 44.6726 22.3105C44.4086 22.5905 44.2766 23.0025 44.2766 23.5465C44.2766 24.0825 44.4046 24.4945 44.6606 24.7825C44.9246 25.0705 45.2526 25.2145 45.6446 25.2145ZM58.7813 20.1265C59.6133 20.1265 60.2733 20.3785 60.7613 20.8825C61.2573 21.3865 61.5053 22.0865 61.5053 22.9825V26.8945H59.4653V23.2585C59.4653 22.8265 59.3493 22.4945 59.1173 22.2625C58.8933 22.0225 58.5813 21.9025 58.1813 21.9025C57.7813 21.9025 57.4653 22.0225 57.2333 22.2625C57.0093 22.4945 56.8973 22.8265 56.8973 23.2585V26.8945H54.8573V23.2585C54.8573 22.8265 54.7413 22.4945 54.5093 22.2625C54.2853 22.0225 53.9733 21.9025 53.5733 21.9025C53.1733 21.9025 52.8573 22.0225 52.6253 22.2625C52.4013 22.4945 52.2893 22.8265 52.2893 23.2585V26.8945H50.2373V20.1985H52.2893V21.0385C52.4973 20.7585 52.7693 20.5385 53.1053 20.3785C53.4413 20.2105 53.8213 20.1265 54.2453 20.1265C54.7493 20.1265 55.1973 20.2345 55.5893 20.4505C55.9893 20.6665 56.3013 20.9745 56.5253 21.3745C56.7573 21.0065 57.0733 20.7065 57.4733 20.4745C57.8733 20.2425 58.3093 20.1265 58.7813 20.1265ZM64.9924 21.1465C65.1924 20.8345 65.4684 20.5825 65.8204 20.3905C66.1724 20.1985 66.5844 20.1025 67.0564 20.1025C67.6084 20.1025 68.1084 20.2425 68.5564 20.5225C69.0044 20.8025 69.3564 21.2025 69.6124 21.7225C69.8764 22.2425 70.0084 22.8465 70.0084 23.5345C70.0084 24.2225 69.8764 24.8305 69.6124 25.3585C69.3564 25.8785 69.0044 26.2825 68.5564 26.5705C68.1084 26.8505 67.6084 26.9905 67.0564 26.9905C66.5924 26.9905 66.1804 26.8945 65.8204 26.7025C65.4684 26.5105 65.1924 26.2625 64.9924 25.9585V30.0865H62.9404V20.1985H64.9924V21.1465ZM67.9204 23.5345C67.9204 23.0225 67.7764 22.6225 67.4884 22.3345C67.2084 22.0385 66.8604 21.8905 66.4444 21.8905C66.0364 21.8905 65.6884 22.0385 65.4004 22.3345C65.1204 22.6305 64.9804 23.0345 64.9804 23.5465C64.9804 24.0585 65.1204 24.4625 65.4004 24.7585C65.6884 25.0545 66.0364 25.2025 66.4444 25.2025C66.8524 25.2025 67.2004 25.0545 67.4884 24.7585C67.7764 24.4545 67.9204 24.0465 67.9204 23.5345ZM73.1369 21.3145C73.3769 20.9465 73.6769 20.6585 74.0369 20.4505C74.3969 20.2345 74.7969 20.1265 75.2369 20.1265V22.2985H74.6729C74.1609 22.2985 73.7769 22.4105 73.5209 22.6345C73.2649 22.8505 73.1369 23.2345 73.1369 23.7865V26.8945H71.0849V20.1985H73.1369V21.3145ZM82.5297 23.4385C82.5297 23.6305 82.5177 23.8305 82.4937 24.0385H77.8497C77.8817 24.4545 78.0137 24.7745 78.2457 24.9985C78.4857 25.2145 78.7777 25.3225 79.1217 25.3225C79.6337 25.3225 79.9897 25.1065 80.1897 24.6745H82.3737C82.2617 25.1145 82.0577 25.5105 81.7617 25.8625C81.4737 26.2145 81.1097 26.4905 80.6697 26.6905C80.2297 26.8905 79.7377 26.9905 79.1937 26.9905C78.5377 26.9905 77.9537 26.8505 77.4417 26.5705C76.9297 26.2905 76.5297 25.8905 76.2417 25.3705C75.9537 24.8505 75.8097 24.2425 75.8097 23.5465C75.8097 22.8505 75.9497 22.2425 76.2297 21.7225C76.5177 21.2025 76.9177 20.8025 77.4297 20.5225C77.9417 20.2425 78.5297 20.1025 79.1937 20.1025C79.8417 20.1025 80.4177 20.2385 80.9217 20.5105C81.4257 20.7825 81.8177 21.1705 82.0977 21.6745C82.3857 22.1785 82.5297 22.7665 82.5297 23.4385ZM80.4297 22.8985C80.4297 22.5465 80.3097 22.2665 80.0697 22.0585C79.8297 21.8505 79.5297 21.7465 79.1697 21.7465C78.8257 21.7465 78.5337 21.8465 78.2937 22.0465C78.0617 22.2465 77.9177 22.5305 77.8617 22.8985H80.4297ZM85.7472 23.5345C85.7472 22.8465 85.8752 22.2425 86.1312 21.7225C86.3952 21.2025 86.7512 20.8025 87.1992 20.5225C87.6472 20.2425 88.1472 20.1025 88.6992 20.1025C89.1712 20.1025 89.5832 20.1985 89.9352 20.3905C90.2952 20.5825 90.5712 20.8345 90.7632 21.1465V20.1985H92.8152V26.8945H90.7632V25.9465C90.5632 26.2585 90.2832 26.5105 89.9232 26.7025C89.5712 26.8945 89.1592 26.9905 88.6872 26.9905C88.1432 26.9905 87.6472 26.8505 87.1992 26.5705C86.7512 26.2825 86.3952 25.8785 86.1312 25.3585C85.8752 24.8305 85.7472 24.2225 85.7472 23.5345ZM90.7632 23.5465C90.7632 23.0345 90.6192 22.6305 90.3312 22.3345C90.0512 22.0385 89.7072 21.8905 89.2992 21.8905C88.8912 21.8905 88.5432 22.0385 88.2552 22.3345C87.9752 22.6225 87.8352 23.0225 87.8352 23.5345C87.8352 24.0465 87.9752 24.4545 88.2552 24.7585C88.5432 25.0545 88.8912 25.2025 89.2992 25.2025C89.7072 25.2025 90.0512 25.0545 90.3312 24.7585C90.6192 24.4625 90.7632 24.0585 90.7632 23.5465ZM96.8438 20.1025C97.3158 20.1025 97.7278 20.1985 98.0798 20.3905C98.4398 20.5825 98.7158 20.8345 98.9078 21.1465V20.1985H100.96V26.8825C100.96 27.4985 100.836 28.0545 100.588 28.5505C100.348 29.0545 99.9758 29.4545 99.4718 29.7505C98.9758 30.0465 98.3558 30.1945 97.6118 30.1945C96.6198 30.1945 95.8158 29.9585 95.1998 29.4865C94.5838 29.0225 94.2318 28.3905 94.1438 27.5905H96.1718C96.2358 27.8465 96.3878 28.0465 96.6278 28.1905C96.8678 28.3425 97.1638 28.4185 97.5158 28.4185C97.9398 28.4185 98.2758 28.2945 98.5238 28.0465C98.7798 27.8065 98.9078 27.4185 98.9078 26.8825V25.9345C98.7078 26.2465 98.4318 26.5025 98.0798 26.7025C97.7278 26.8945 97.3158 26.9905 96.8438 26.9905C96.2918 26.9905 95.7918 26.8505 95.3438 26.5705C94.8958 26.2825 94.5398 25.8785 94.2758 25.3585C94.0198 24.8305 93.8918 24.2225 93.8918 23.5345C93.8918 22.8465 94.0198 22.2425 94.2758 21.7225C94.5398 21.2025 94.8958 20.8025 95.3438 20.5225C95.7918 20.2425 96.2918 20.1025 96.8438 20.1025ZM98.9078 23.5465C98.9078 23.0345 98.7638 22.6305 98.4758 22.3345C98.1958 22.0385 97.8518 21.8905 97.4438 21.8905C97.0358 21.8905 96.6878 22.0385 96.3998 22.3345C96.1198 22.6225 95.9798 23.0225 95.9798 23.5345C95.9798 24.0465 96.1198 24.4545 96.3998 24.7585C96.6878 25.0545 97.0358 25.2025 97.4438 25.2025C97.8518 25.2025 98.1958 25.0545 98.4758 24.7585C98.7638 24.4625 98.9078 24.0585 98.9078 23.5465ZM105.492 26.9905C104.836 26.9905 104.244 26.8505 103.716 26.5705C103.196 26.2905 102.784 25.8905 102.48 25.3705C102.184 24.8505 102.036 24.2425 102.036 23.5465C102.036 22.8585 102.188 22.2545 102.492 21.7345C102.796 21.2065 103.212 20.8025 103.74 20.5225C104.268 20.2425 104.86 20.1025 105.516 20.1025C106.172 20.1025 106.764 20.2425 107.292 20.5225C107.82 20.8025 108.236 21.2065 108.54 21.7345C108.844 22.2545 108.996 22.8585 108.996 23.5465C108.996 24.2345 108.84 24.8425 108.528 25.3705C108.224 25.8905 107.804 26.2905 107.268 26.5705C106.74 26.8505 106.148 26.9905 105.492 26.9905ZM105.492 25.2145C105.884 25.2145 106.216 25.0705 106.488 24.7825C106.768 24.4945 106.908 24.0825 106.908 23.5465C106.908 23.0105 106.772 22.5985 106.5 22.3105C106.236 22.0225 105.908 21.8785 105.516 21.8785C105.116 21.8785 104.784 22.0225 104.52 22.3105C104.256 22.5905 104.124 23.0025 104.124 23.5465C104.124 24.0825 104.252 24.4945 104.508 24.7825C104.772 25.0705 105.1 25.2145 105.492 25.2145ZM112.137 21.3145C112.377 20.9465 112.677 20.6585 113.037 20.4505C113.397 20.2345 113.797 20.1265 114.237 20.1265V22.2985H113.673C113.161 22.2985 112.777 22.4105 112.521 22.6345C112.265 22.8505 112.137 23.2345 112.137 23.7865V26.8945H110.085V20.1985H112.137V21.3145ZM114.81 23.5345C114.81 22.8465 114.938 22.2425 115.194 21.7225C115.458 21.2025 115.814 20.8025 116.262 20.5225C116.71 20.2425 117.21 20.1025 117.762 20.1025C118.234 20.1025 118.646 20.1985 118.998 20.3905C119.358 20.5825 119.634 20.8345 119.826 21.1465V20.1985H121.878V26.8945H119.826V25.9465C119.626 26.2585 119.346 26.5105 118.986 26.7025C118.634 26.8945 118.222 26.9905 117.75 26.9905C117.206 26.9905 116.71 26.8505 116.262 26.5705C115.814 26.2825 115.458 25.8785 115.194 25.3585C114.938 24.8305 114.81 24.2225 114.81 23.5345ZM119.826 23.5465C119.826 23.0345 119.682 22.6305 119.394 22.3345C119.114 22.0385 118.77 21.8905 118.362 21.8905C117.954 21.8905 117.606 22.0385 117.318 22.3345C117.038 22.6225 116.898 23.0225 116.898 23.5345C116.898 24.0465 117.038 24.4545 117.318 24.7585C117.606 25.0545 117.954 25.2025 118.362 25.2025C118.77 25.2025 119.114 25.0545 119.394 24.7585C119.682 24.4625 119.826 24.0585 119.826 23.5465ZM126.062 18.1705L125.822 23.9185H124.082L123.842 18.1705H126.062ZM124.982 26.9905C124.622 26.9905 124.326 26.8865 124.094 26.6785C123.87 26.4625 123.758 26.1985 123.758 25.8865C123.758 25.5665 123.87 25.2985 124.094 25.0825C124.326 24.8665 124.622 24.7585 124.982 24.7585C125.334 24.7585 125.622 24.8665 125.846 25.0825C126.078 25.2985 126.194 25.5665 126.194 25.8865C126.194 26.1985 126.078 26.4625 125.846 26.6785C125.622 26.8865 125.334 26.9905 124.982 26.9905Z" fill="black"/>
<defs>
<filter id="filter0_d_435_55" x="0.620239" y="0.894531" width="158.789" height="52.7848" filterUnits="userSpaceOnUse" color-interpolation-filters="sRGB">
<feFlood flood-opacity="0" result="BackgroundImageFix"/>
<feColorMatrix in="SourceAlpha" type="matrix" values="0 0 0 0 0 0 0 0 0 0 0 0 0 0 0 0 0 0 127 0" result="hardAlpha"/>
<feOffset dy="4"/>
<feGaussianBlur stdDeviation="5"/>
<feComposite in2="hardAlpha" operator="out"/>
<feColorMatrix type="matrix" values="0 0 0 0 0 0 0 0 0 0 0 0 0 0 0 0 0 0 0.25 0"/>
<feBlend mode="normal" in2="BackgroundImageFix" result="effect1_dropShadow_435_55"/>
<feBlend mode="normal" in="SourceGraphic" in2="effect1_dropShadow_435_55" result="shape"/>
</filter>
</defs>
</svg>
